<svg xmlns="http://www.w3.org/2000/svg" width="393" height="852" viewBox="0 0 393 852">
  <defs>
    <linearGradient id="bg" x1="0" y1="0" x2="0" y2="1"><stop offset="0%" stop-color="#070708"/><stop offset="100%" stop-color="#0b0b0c"/></linearGradient>
    <linearGradient id="aurora" x1="0" y1="0" x2="0" y2="1"><stop offset="0%" stop-color="rgba(244,198,116,0.08)"/><stop offset="50%" stop-color="transparent"/><stop offset="100%" stop-color="rgba(93,138,168,0.05)"/></linearGradient>
  </defs>
  <rect width="393" height="852" fill="url(#bg)"/>
  <rect width="393" height="400" fill="url(#aurora)"/>
  <!-- Header -->
  <rect x="20" y="70" width="40" height="40" rx="20" fill="rgba(20,20,22,0.92)" stroke="rgba(239,236,229,0.12)"/>
  <text x="70" y="88" fill="#efece5" font-family="system-ui" font-size="15" font-weight="500">helios°</text>
  <text x="300" y="88" fill="#a59f90" font-family="monospace" font-size="10" letter-spacing="0.15em">Open app →</text>
  <!-- Hero -->
  <text x="20" y="160" fill="#7a7568" font-family="monospace" font-size="10" letter-spacing="0.2em">SOLAR INTELLIGENCE</text>
  <text x="20" y="210" fill="#efece5" font-family="Georgia, serif" font-size="48" font-weight="300" letter-spacing="-0.02em">Your solar array,</text>
  <text x="20" y="260" fill="#efece5" font-family="Georgia, serif" font-size="48" font-weight="300" font-style="italic" letter-spacing="-0.02em">finally explained.</text>
  <text x="20" y="300" fill="#a59f90" font-family="system-ui" font-size="16">Precision energy intelligence for your solar array.</text>
  <rect x="20" y="325" width="140" height="44" rx="22" fill="#efece5"/>
  <text x="90" y="352" fill="#0b0b0c" font-family="system-ui" font-size="13" font-weight="500" text-anchor="middle">Open the app</text>
  <rect x="175" y="325" width="120" height="44" rx="22" fill="none" stroke="rgba(239,236,229,0.12)"/>
  <text x="235" y="352" fill="#dcd6c8" font-family="system-ui" font-size="13" text-anchor="middle">How it works</text>
  <!-- Feature grid -->
  <text x="20" y="420" fill="#7a7568" font-family="monospace" font-size="10" letter-spacing="0.2em">WHAT YOU GET</text>
  <text x="20" y="450" fill="#efece5" font-family="system-ui" font-size="28" font-weight="500">Six things your inverter app won't do.</text>
  <rect x="20" y="475" width="170" height="120" rx="18" fill="rgba(26,26,28,0.9)" stroke="rgba(239,236,229,0.06)"/>
  <rect x="35" y="490" width="32" height="32" rx="16" fill="#141416" stroke="rgba(239,236,229,0.06)"/>
  <text x="35" y="540" fill="#efece5" font-family="system-ui" font-size="13" font-weight="500">AI insights</text>
  <text x="35" y="558" fill="#a59f90" font-family="system-ui" font-size="11">Not just charts.</text>
  <rect x="203" y="475" width="170" height="120" rx="18" fill="rgba(26,26,28,0.9)" stroke="rgba(239,236,229,0.06)"/>
  <rect x="218" y="490" width="32" height="32" rx="16" fill="#141416" stroke="rgba(239,236,229,0.06)"/>
  <text x="218" y="540" fill="#efece5" font-family="system-ui" font-size="13" font-weight="500">7-day forecast</text>
  <rect x="20" y="610" width="170" height="120" rx="18" fill="rgba(26,26,28,0.9)" stroke="rgba(239,236,229,0.06)"/>
  <rect x="35" y="625" width="32" height="32" rx="16" fill="#141416" stroke="rgba(239,236,229,0.06)"/>
  <text x="35" y="675" fill="#efece5" font-family="system-ui" font-size="13" font-weight="500">Works with any inverter</text>
  <rect x="203" y="610" width="170" height="120" rx="18" fill="rgba(26,26,28,0.9)" stroke="rgba(239,236,229,0.06)"/>
  <rect x="218" y="625" width="32" height="32" rx="16" fill="#141416" stroke="rgba(239,236,229,0.06)"/>
  <text x="218" y="675" fill="#efece5" font-family="system-ui" font-size="13" font-weight="500">Battery strategy</text>
  <!-- CTA -->
  <rect x="20" y="760" width="353" height="120" rx="20" fill="rgba(36,36,39,0.9)" stroke="rgba(239,236,229,0.06)"/>
  <rect x="176" y="775" width="40" height="40" rx="20" fill="#141416" stroke="rgba(239,236,229,0.12)"/>
  <text x="196" y="835" fill="#efece5" font-family="Georgia, serif" font-size="24" text-anchor="middle">Start using helios° today.</text>
  <rect x="126" y="850" width="140" height="40" rx="20" fill="#efece5"/>
  <text x="196" y="875" fill="#0b0b0c" font-family="system-ui" font-size="13" font-weight="500" text-anchor="middle">Open the app</text>
  <!-- Annotation -->
  <line x1="380" y1="230" x2="420" y2="230" stroke="#f0c674" stroke-width="0.5"/>
  <text x="425" y="233" fill="#f0c674" font-family="monospace" font-size="9">Cinematic intro: procedural sun arc</text>
  <text x="425" y="245" fill="#f0c674" font-family="monospace" font-size="9">Canvas + TimelineView parallax layers</text>
</svg>
