<svg xmlns="http://www.w3.org/2000/svg" width="393" height="852" viewBox="0 0 393 852">
  <defs>
    <linearGradient id="bgL" x1="0" y1="0" x2="0" y2="1"><stop offset="0%" stop-color="#f4f1ea"/><stop offset="100%" stop-color="#efece5"/></linearGradient>
    <linearGradient id="surfaceL" x1="0" y1="0" x2="0" y2="1"><stop offset="0%" stop-color="rgba(255,255,255,0.95)"/><stop offset="100%" stop-color="rgba(248,246,240,0.95)"/></linearGradient>
  </defs>
  <rect width="393" height="852" fill="url(#bgL)"/>
  <rect x="20" y="70" width="32" height="32" rx="16" fill="rgba(255,255,255,0.96)" stroke="rgba(11,11,12,0.12)"/>
  <text x="65" y="88" fill="#0b0b0c" font-family="system-ui" font-size="14" font-weight="500">helios°</text>
  <text x="320" y="88" fill="#7a7568" font-family="monospace" font-size="10" letter-spacing="0.15em">Shared snapshot</text>
  <rect x="20" y="120" width="353" height="140" rx="18" fill="url(#surfaceL)" stroke="rgba(11,11,12,0.08)"/>
  <text x="35" y="145" fill="#7a7568" font-family="monospace" font-size="10">San Francisco, CA</text>
  <text x="35" y="162" fill="#7a7568" font-family="monospace" font-size="10" letter-spacing="0.15em">FRIDAY, MAY 16 · 1:42 PM</text>
  <text x="35" y="215" fill="#0b0b0c" font-family="Georgia, serif" font-size="64" font-weight="300" letter-spacing="-0.02em">4.23</text>
  <text x="175" y="215" fill="#544f47" font-family="monospace" font-size="16" letter-spacing="0.15em">kW</text>
  <text x="35" y="240" fill="#544f47" font-family="system-ui" font-size="13">Live solar production at the moment of share.</text>
  <rect x="20" y="280" width="170" height="100" rx="18" fill="url(#surfaceL)" stroke="rgba(11,11,12,0.08)"/>
  <text x="35" y="305" fill="#7a7568" font-family="monospace" font-size="9" letter-spacing="0.15em">TODAY</text>
  <text x="35" y="340" fill="#0b0b0c" font-family="Georgia, serif" font-size="32">28.6</text>
  <text x="35" y="360" fill="#7a7568" font-family="monospace" font-size="9">kWh produced</text>
  <rect x="203" y="280" width="170" height="100" rx="18" fill="url(#surfaceL)" stroke="rgba(11,11,12,0.08)"/>
  <text x="218" y="305" fill="#7a7568" font-family="monospace" font-size="9" letter-spacing="0.15em">BATTERY</text>
  <text x="218" y="340" fill="#0b0b0c" font-family="Georgia, serif" font-size="32">62</text>
  <text x="218" y="360" fill="#7a7568" font-family="monospace" font-size="9">% state of charge</text>
  <rect x="20" y="400" width="170" height="100" rx="18" fill="url(#surfaceL)" stroke="rgba(11,11,12,0.08)"/>
  <text x="35" y="425" fill="#7a7568" font-family="monospace" font-size="9" letter-spacing="0.15em">SELF-USE</text>
  <text x="35" y="460" fill="#0b0b0c" font-family="Georgia, serif" font-size="32">74</text>
  <text x="35" y="480" fill="#7a7568" font-family="monospace" font-size="9">% on-site</text>
  <rect x="203" y="400" width="170" height="100" rx="18" fill="url(#surfaceL)" stroke="rgba(11,11,12,0.08)"/>
  <text x="218" y="425" fill="#7a7568" font-family="monospace" font-size="9" letter-spacing="0.15em">LIFETIME</text>
  <text x="218" y="460" fill="#0b0b0c" font-family="Georgia, serif" font-size="32">18.4</text>
  <text x="218" y="480" fill="#7a7568" font-family="monospace" font-size="9">MWh · 12 kg CO₂ today</text>
  <rect x="20" y="525" width="353" height="90" rx="18" fill="url(#surfaceL)" stroke="rgba(11,11,12,0.08)"/>
  <text x="35" y="550" fill="#7a7568" font-family="monospace" font-size="9" letter-spacing="0.15em">NEXT 5 DAYS · FORECAST</text>
  <text x="55" y="580" fill="#7a7568" font-family="monospace" font-size="9" text-anchor="middle">Tod</text>
  <text x="55" y="598" fill="#0b0b0c" font-family="monospace" font-size="12" text-anchor="middle">31</text>
  <rect x="40" y="605" width="30" height="3" rx="1.5" fill="#efece5"/><rect x="40" y="605" width="26" height="3" rx="1.5" fill="#b8862e"/>
  <text x="130" y="580" fill="#7a7568" font-family="monospace" font-size="9" text-anchor="middle">Tom</text>
  <text x="130" y="598" fill="#0b0b0c" font-family="monospace" font-size="12" text-anchor="middle">28</text>
  <rect x="115" y="605" width="30" height="3" rx="1.5" fill="#efece5"/><rect x="115" y="605" width="22" height="3" rx="1.5" fill="#b8862e"/>
  <text x="205" y="580" fill="#7a7568" font-family="monospace" font-size="9" text-anchor="middle">Sat</text>
  <text x="205" y="598" fill="#0b0b0c" font-family="monospace" font-size="12" text-anchor="middle">35</text>
  <rect x="190" y="605" width="30" height="3" rx="1.5" fill="#efece5"/><rect x="190" y="605" width="28" height="3" rx="1.5" fill="#b8862e"/>
  <text x="280" y="580" fill="#7a7568" font-family="monospace" font-size="9" text-anchor="middle">Sun</text>
  <text x="280" y="598" fill="#0b0b0c" font-family="monospace" font-size="12" text-anchor="middle">22</text>
  <rect x="265" y="605" width="30" height="3" rx="1.5" fill="#efece5"/><rect x="265" y="605" width="18" height="3" rx="1.5" fill="#b8862e"/>
  <text x="340" y="580" fill="#7a7568" font-family="monospace" font-size="9" text-anchor="middle">Mon</text>
  <text x="340" y="598" fill="#0b0b0c" font-family="monospace" font-size="12" text-anchor="middle">38</text>
  <rect x="325" y="605" width="30" height="3" rx="1.5" fill="#efece5"/><rect x="325" y="605" width="24" height="3" rx="1.5" fill="#b8862e"/>
  <rect x="20" y="645" width="353" height="120" rx="18" fill="url(#surfaceL)" stroke="rgba(11,11,12,0.08)"/>
  <text x="35" y="675" fill="#0b0b0c" font-family="system-ui" font-size="16" font-weight="500">Want one for your roof?</text>
  <text x="35" y="698" fill="#544f47" font-family="system-ui" font-size="12">helios° works with any SunSpec-compatible inverter.</text>
  <rect x="35" y="715" width="140" height="36" rx="18" fill="#0b0b0c"/>
  <text x="105" y="738" fill="#efece5" font-family="system-ui" font-size="12" font-weight="500" text-anchor="middle">Try helios°</text>
  <rect x="190" y="715" width="100" height="36" rx="8" fill="rgba(255,255,255,0.6)" stroke="rgba(11,11,12,0.08)"/>
  <text x="240" y="738" fill="#1a1a1c" font-family="monospace" font-size="11" text-anchor="middle">Copy link</text>
</svg>
